<svg preserveAspectRatio="none" width="100%" height="100%" overflow="visible" style="display: block;" viewBox="0 0 23.9886 23.9817" fill="none" xmlns="http://www.w3.org/2000/svg">
<g id="Instagram">
<path id="Vector" fill-rule="evenodd" clip-rule="evenodd" d="M23.9868 11.9687C23.9793 8.71468 23.9643 8.30231 23.9043 7.0277C23.8444 5.7531 23.6419 4.88337 23.342 4.11861C23.0346 3.33136 22.6222 2.66407 21.955 1.99678C21.2877 1.32948 20.6204 0.924611 19.8256 0.617207C19.0609 0.324799 18.1911 0.122362 16.9165 0.0623805C15.6344 0.00239925 15.2296 -0.00509841 11.9681 0.00239925C8.71409 0.00989691 8.30172 0.0248922 7.02712 0.0848735C5.75251 0.144855 4.88278 0.347291 4.11802 0.647198C3.33077 0.954602 2.66348 1.36697 1.99619 2.03426C1.3289 2.70156 0.924022 3.36885 0.616618 4.1561C0.324209 4.92086 0.121773 5.79809 0.0617915 7.07269C0.00930786 8.34729 -0.00568745 8.75966 0.00181021 12.0136C0.00930786 15.2676 0.0243032 15.68 0.0842844 16.9546C0.144266 18.2292 0.346702 19.0989 0.646609 19.8637C0.954013 20.6509 1.36638 21.3182 2.03368 21.9855C2.70097 22.6528 3.36826 23.0577 4.16301 23.3651C4.92777 23.6575 5.7975 23.8599 7.0721 23.9199C8.3542 23.9724 8.75907 23.9874 12.0131 23.9799C15.267 23.9724 15.6794 23.9574 16.954 23.8974C18.2286 23.8375 19.0983 23.635 19.8631 23.3351C20.6504 23.0277 21.3177 22.6153 21.9849 21.948C22.6522 21.2808 23.0571 20.6135 23.3645 19.8187C23.6569 19.0539 23.8594 18.1842 23.9193 16.9096C23.9793 15.635 23.9943 15.2226 23.9868 11.9687ZM21.7675 16.8196C21.715 17.9893 21.5201 18.6266 21.3626 19.0464C21.1452 19.6088 20.8903 20.0061 20.4704 20.426C20.0505 20.8459 19.6532 21.1083 19.0908 21.3257C18.671 21.4907 18.0337 21.6856 16.864 21.7456C15.5969 21.8056 15.2221 21.8206 12.0206 21.8281C8.81906 21.8356 8.43667 21.8206 7.17707 21.7681C5.99994 21.7156 5.36264 21.5207 4.94277 21.3557C4.38044 21.1383 3.98307 20.8834 3.5632 20.4635C3.14333 20.0436 2.88091 19.6463 2.66348 19.0839C2.49853 18.6641 2.30359 18.0268 2.24361 16.8571C2.18363 15.59 2.16863 15.2151 2.16114 12.0136C2.15364 8.81215 2.16863 8.42977 2.22112 7.17016C2.2736 5.99303 2.46854 5.36322 2.63349 4.93586C2.85092 4.38103 3.10584 3.97616 3.52571 3.55629C3.94558 3.13642 4.34295 2.874 4.90528 2.65657C5.32515 2.49162 5.96245 2.29668 7.13208 2.2367C8.39919 2.17672 8.77407 2.16172 11.9756 2.15423C15.1771 2.14673 15.5595 2.16172 16.8191 2.21421C17.9887 2.26669 18.626 2.46163 19.0459 2.61908C19.6082 2.83651 20.0056 3.09143 20.4254 3.5113C20.8453 3.93117 21.1077 4.32855 21.3251 4.89087C21.4976 5.31824 21.6925 5.95554 21.745 7.12517C21.805 8.39228 21.82 8.76716 21.8275 11.9687C21.835 15.1702 21.82 15.5525 21.7675 16.8196Z" fill="var(--fill-0, #1C1E21)"/>
<path id="Vector_2" fill-rule="evenodd" clip-rule="evenodd" d="M11.9831 5.83595C8.57912 5.84345 5.82748 8.60259 5.83498 12.0065C5.84247 15.4105 8.60161 18.1621 12.0055 18.1546C15.4095 18.1471 18.1611 15.388 18.1536 11.984C18.1461 8.5801 15.387 5.82846 11.9831 5.83595ZM12.0055 15.9878C9.80124 15.9953 8.0018 14.2033 8.0018 11.999C8.0018 9.79472 9.78624 7.99528 11.9906 7.99528C14.1949 7.98778 15.9943 9.77972 15.9943 11.984C15.9943 14.1883 14.2099 15.9878 12.0055 15.9878Z" fill="var(--fill-0, #1C1E21)"/>
<path id="Vector_3" fill-rule="evenodd" clip-rule="evenodd" d="M18.3786 4.1336C17.5838 4.1336 16.939 4.77839 16.939 5.57315C16.939 6.3679 17.5838 7.0127 18.3786 7.0127C19.1733 7.0127 19.8181 6.3679 19.8181 5.57315C19.8181 4.77839 19.1733 4.1336 18.3786 4.1336Z" fill="var(--fill-0, #1C1E21)"/>
</g>
</svg>
