<svg preserveAspectRatio="none" width="100%" height="100%" overflow="visible" style="display: block;" viewBox="0 0 56 56" fill="none" xmlns="http://www.w3.org/2000/svg">
<g id="ic_socials_medium_56">
<path id="Vector" d="M39.7616 20.3517L42 18.425L41.9981 18H34.2603L28.7451 30.3823L22.4709 18.0016H14.3543V18.425L16.9695 21.2581C17.0959 21.3605 17.1937 21.4883 17.255 21.6311C17.3162 21.7739 17.3392 21.9277 17.322 22.08V33.2167C17.3595 33.4146 17.3448 33.6179 17.2791 33.8098C17.2133 34.0016 17.0983 34.177 16.9434 34.3214L14 37.5328V37.9546H22.3389V37.5328L19.3972 34.3214C19.241 34.177 19.1234 34.0025 19.0533 33.811C18.9832 33.6198 18.9624 33.4165 18.9926 33.2167V23.5864L26.312 37.9561H27.1629L33.4493 23.5864V35.0403C33.4493 35.3434 33.4493 35.4029 33.2269 35.6028L30.9643 37.5782V38H41.9445V37.5782L39.7616 35.6498C39.6672 35.5848 39.5941 35.4982 39.5504 35.3986C39.5067 35.2993 39.4939 35.191 39.5133 35.0857V20.9159C39.4939 20.8104 39.5067 20.7022 39.5504 20.6028C39.5941 20.5034 39.6672 20.4166 39.7616 20.3517Z" fill="var(--fill-0, black)"/>
</g>
</svg>
