<svg preserveAspectRatio="none" width="100%" height="100%" overflow="visible" style="display: block;" viewBox="0 0 56 56" fill="none" xmlns="http://www.w3.org/2000/svg">
<g id="ic_socials_pinterest_56">
<path id="Vector" d="M28.0099 16C21.3773 16 16 21.3684 16 27.9901C16 33.0724 19.1631 37.4145 23.631 39.1612C23.5222 38.2138 23.4333 36.7533 23.6705 35.7171C23.888 34.7796 25.0741 29.7566 25.0741 29.7566C25.0741 29.7566 24.7183 29.0362 24.7183 27.9803C24.7183 26.3125 25.687 25.0691 26.8929 25.0691C27.9209 25.0691 28.4151 25.8388 28.4151 26.7566C28.4151 27.7829 27.7627 29.3224 27.4168 30.7533C27.1301 31.9474 28.0197 32.9243 29.196 32.9243C31.3311 32.9243 32.972 30.6743 32.972 27.4375C32.972 24.5658 30.9061 22.5625 27.9506 22.5625C24.5305 22.5625 22.5239 25.1184 22.5239 27.7632C22.5239 28.7895 22.9193 29.8947 23.4135 30.4967C23.5123 30.6151 23.5222 30.7237 23.4926 30.8421C23.4036 31.2171 23.196 32.0362 23.1565 32.2039C23.1071 32.4211 22.9786 32.4704 22.7512 32.3618C21.2488 31.6612 20.3097 29.4803 20.3097 27.7138C20.3097 23.9342 23.0576 20.4605 28.2471 20.4605C32.4085 20.4605 35.6507 23.4211 35.6507 27.3882C35.6507 31.523 33.0411 34.8487 29.4234 34.8487C28.2076 34.8487 27.0609 34.2171 26.6754 33.4671C26.6754 33.4671 26.0725 35.7566 25.9242 36.3191C25.6573 37.3651 24.9258 38.6678 24.4316 39.4671C25.5585 39.8125 26.7446 40 27.9901 40C34.6227 40 39.9999 34.6316 39.9999 28.0099C40.0197 21.3684 34.6425 16 28.0099 16Z" fill="var(--fill-0, black)"/>
</g>
</svg>
